<?xml version="1.0" encoding="UTF-8"?>
<!DOCTYPE svg PUBLIC "-//W3C//DTD SVG 1.1//EN" "http://www.w3.org/Graphics/SVG/1.1/DTD/svg11.dtd">
<svg xmlns="http://www.w3.org/2000/svg" version="1.1" width="64px" height="64px" style="shape-rendering:geometricPrecision; text-rendering:geometricPrecision; image-rendering:optimizeQuality; fill-rule:evenodd; clip-rule:evenodd" xmlns:xlink="http://www.w3.org/1999/xlink">
<g><path style="opacity:0.839" fill="#d8d8d8" d="M 26.5,-0.5 C 27.5,-0.5 28.5,-0.5 29.5,-0.5C 38.6311,9.13171 47.9644,18.6317 57.5,28C 56.1246,30.4772 54.2912,31.3106 52,30.5C 51.51,31.7932 51.3433,33.1266 51.5,34.5C 49.8333,34.5 48.1667,34.5 46.5,34.5C 46.665,31.1501 46.4983,27.8168 46,24.5C 40,18.5 34,12.5 28,6.5C 22,12.5 16,18.5 10,24.5C 9.50014,35.8284 9.33348,47.1618 9.5,58.5C 12.1667,58.5 14.8333,58.5 17.5,58.5C 17.5,48.8333 17.5,39.1667 17.5,29.5C 24.5,29.5 31.5,29.5 38.5,29.5C 38.5,39.1667 38.5,48.8333 38.5,58.5C 42.8333,58.5 47.1667,58.5 51.5,58.5C 51.5,60.1667 51.5,61.8333 51.5,63.5C 45.5,63.5 39.5,63.5 33.5,63.5C 33.5,53.8333 33.5,44.1667 33.5,34.5C 29.8333,34.5 26.1667,34.5 22.5,34.5C 22.5,44.1667 22.5,53.8333 22.5,63.5C 16.5,63.5 10.5,63.5 4.5,63.5C 4.66651,52.495 4.49985,41.495 4,30.5C 2.28938,31.5814 0.789384,31.248 -0.5,29.5C -0.5,28.8333 -0.5,28.1667 -0.5,27.5C 8.47245,18.1932 17.4725,8.8599 26.5,-0.5 Z"/></g>
<g><path style="opacity:0.856" fill="#d8d8d8" d="M 63.5,37.5 C 63.5,46.1667 63.5,54.8333 63.5,63.5C 61.8333,63.5 60.1667,63.5 58.5,63.5C 58.5,60.8333 58.5,58.1667 58.5,55.5C 53.1667,55.5 47.8333,55.5 42.5,55.5C 42.5,49.5 42.5,43.5 42.5,37.5C 49.5,37.5 56.5,37.5 63.5,37.5 Z M 47.5,42.5 C 51.1667,42.5 54.8333,42.5 58.5,42.5C 58.5,45.1667 58.5,47.8333 58.5,50.5C 54.8333,50.5 51.1667,50.5 47.5,50.5C 47.5,47.8333 47.5,45.1667 47.5,42.5 Z"/></g>
</svg>
